<svg width="108" height="40" viewBox="0 0 108 40" fill="none" xmlns="http://www.w3.org/2000/svg">
<g clip-path="url(#clip0_78_310)">
<path d="M108 20C108 31.0457 99.0457 40 88 40C76.9543 40 68 31.0457 68 20C68 8.9543 76.9543 0 88 0C99.0457 0 108 8.9543 108 20Z" fill="#F4B10D"/>
<path d="M21.1447 21.536C21.4007 21.536 21.5687 21.72 21.6487 22.088C21.7447 22.456 21.7927 23.016 21.7927 23.768C21.7927 24.536 21.7447 25.104 21.6487 25.472C21.5527 25.824 21.3847 26 21.1447 26C20.6167 26 20.0887 25.856 19.5607 25.568C19.0327 25.264 18.4807 24.84 17.9047 24.296L17.2087 25.592C16.2167 25.752 15.2007 25.856 14.1607 25.904C14.1927 27.056 14.1207 28.064 13.9447 28.928C12.6967 29.952 11.3447 30.768 9.88866 31.376C8.43266 32 7.00866 32.312 5.61666 32.312C3.95266 32.312 2.60066 31.856 1.56066 30.944C0.536658 30.048 0.0246582 28.72 0.0246582 26.96C0.0246582 25.008 0.536658 22.784 1.56066 20.288L4.87266 21.368C4.24866 23.208 3.93666 24.624 3.93666 25.616C3.93666 26.4 4.12866 26.984 4.51266 27.368C4.91266 27.768 5.48066 27.968 6.21666 27.968C7.44866 27.968 9.04866 27.44 11.0167 26.384C10.2167 25.696 8.99266 24.912 7.34466 24.032L8.52066 20.864C9.56066 21.072 10.7207 21.248 12.0007 21.392C13.2807 21.52 14.4327 21.584 15.4567 21.584C14.8167 20.816 14.2807 20.192 13.8487 19.712C13.4167 19.216 12.9687 18.76 12.5047 18.344V14.48L20.1367 11.624L20.4727 11.864V15.824L16.2727 17.144C16.7687 17.736 17.1527 18.2 17.4247 18.536C18.0487 19.304 18.5287 19.872 18.8647 20.24C19.2007 20.608 19.5607 20.92 19.9447 21.176C20.3287 21.416 20.7287 21.536 21.1447 21.536Z" fill="#346E16"/>
<path d="M26.5244 17.792C26.8124 18.704 26.9564 19.752 26.9564 20.936C26.9564 21.8 26.8684 22.616 26.6924 23.384C26.5324 24.152 26.2924 24.792 25.9724 25.304C24.5164 25.768 22.9084 26 21.1484 26C20.9084 26 20.7404 25.824 20.6444 25.472C20.5484 25.104 20.5004 24.536 20.5004 23.768C20.5004 23.016 20.5484 22.456 20.6444 22.088C20.7244 21.72 20.8924 21.536 21.1484 21.536C22.1564 21.536 22.9324 21.464 23.4764 21.32C23.3164 20.648 23.0444 19.768 22.6604 18.68L26.5244 17.792ZM24.0764 16.568C23.7404 16.44 23.3004 16.192 22.7564 15.824C22.2124 15.44 21.8364 15.112 21.6284 14.84C21.6764 14.632 21.7964 14.352 21.9884 14C22.1964 13.632 22.4284 13.304 22.6844 13.016C22.9404 12.712 23.1644 12.544 23.3564 12.512C23.5324 12.48 23.7964 12.56 24.1484 12.752C24.5164 12.944 24.8524 13.184 25.1564 13.472C25.4764 13.744 25.6524 13.96 25.6844 14.12C25.7484 14.36 25.5644 14.784 25.1324 15.392C24.7164 15.984 24.3644 16.376 24.0764 16.568Z" fill="#346E16"/>
<path d="M28.5755 25.952C28.6555 24.672 28.6955 23.344 28.6955 21.968C28.6955 19.392 28.5995 16.28 28.4075 12.632L32.2955 12.416C32.5035 15.488 32.6075 18.4 32.6075 21.152C32.6075 22.896 32.5755 24.312 32.5115 25.4C32.1755 25.592 31.6395 25.752 30.9035 25.88C30.1675 25.992 29.4395 26.056 28.7195 26.072L28.5755 25.952Z" fill="#346E16"/>
<path d="M40.1943 14.24C41.0103 15.456 41.6663 16.736 42.1623 18.08C42.6743 19.424 42.9303 20.768 42.9303 22.112C42.9303 23.168 42.7543 24.2 42.4023 25.208C41.9383 25.416 41.1623 25.616 40.0743 25.808C39.0023 25.984 37.9303 26.072 36.8583 26.072C35.8503 26.072 34.9943 25.984 34.2903 25.808C34.3383 24.416 34.6023 22.992 35.0823 21.536C35.9623 21.616 36.7943 21.656 37.5783 21.656C38.2663 21.656 38.9223 21.632 39.5463 21.584C38.9383 20 38.0503 18.488 36.8823 17.048L40.1943 14.24Z" fill="#346E16"/>
<path d="M78.0978 21.536C78.3538 21.536 78.5218 21.72 78.6018 22.088C78.6978 22.456 78.7458 23.016 78.7458 23.768C78.7458 24.536 78.6978 25.104 78.6018 25.472C78.5058 25.824 78.3378 26 78.0978 26C77.4578 26 76.8658 25.88 76.3218 25.64C75.7778 25.4 75.2978 24.96 74.8818 24.32H74.6658C74.5058 24.896 74.2338 25.336 73.8498 25.64C73.4818 25.944 73.0578 26.096 72.5778 26.096C71.6178 26.096 70.9218 25.504 70.4898 24.32H70.2738C69.9378 24.88 69.4738 25.312 68.8818 25.616C68.3058 25.92 67.7218 26.072 67.1298 26.072C66.3138 26.072 65.6578 25.856 65.1618 25.424C64.6658 24.992 64.1538 24.376 63.6258 23.576C63.1938 22.936 62.8258 22.472 62.5218 22.184C62.2178 21.88 61.8338 21.728 61.3698 21.728C61.1138 21.728 60.8178 21.816 60.4818 21.992C60.1458 22.152 59.8418 22.36 59.5698 22.616C60.9298 23.192 61.8018 23.832 62.1858 24.536C62.3138 24.744 62.3778 25.12 62.3778 25.664C62.3778 26.208 62.2978 26.816 62.1378 27.488C61.9778 28.176 61.7298 28.856 61.3938 29.528C60.4658 30.28 59.3058 30.928 57.9138 31.472C56.5218 32.032 55.1538 32.312 53.8098 32.312C52.1458 32.312 50.7938 31.856 49.7538 30.944C48.7298 30.048 48.2178 28.72 48.2178 26.96C48.2178 25.04 48.7058 22.84 49.6818 20.36L52.9938 21.416C52.4178 23.096 52.1298 24.496 52.1298 25.616C52.1298 26.4 52.3298 27 52.7298 27.416C53.1458 27.848 53.7298 28.064 54.4818 28.064C55.6818 28.064 57.1378 27.576 58.8498 26.6L58.2498 26.264C57.5618 25.864 57.0338 25.544 56.6658 25.304C56.3138 25.048 56.0258 24.76 55.8018 24.44C55.5938 24.104 55.4898 23.72 55.4898 23.288C55.4898 22.632 55.8418 21.864 56.5458 20.984C57.2498 20.104 58.0978 19.352 59.0898 18.728C60.0978 18.088 60.9938 17.768 61.7778 17.768C62.4498 17.768 62.9778 17.928 63.3618 18.248C63.7618 18.568 64.1858 19.048 64.6338 19.688C65.0818 20.328 65.4898 20.808 65.8578 21.128C66.2418 21.432 66.7618 21.584 67.4178 21.584C68.5698 21.584 69.3698 20.72 69.8178 18.992L71.8338 19.304C71.8178 19.432 71.8098 19.608 71.8098 19.832C71.8098 20.424 71.9138 20.872 72.1218 21.176C72.3458 21.48 72.6258 21.632 72.9618 21.632C73.7778 21.632 74.2418 20.736 74.3538 18.944H76.3458C76.3618 19.648 76.4018 20.168 76.4658 20.504C76.5298 20.84 76.6818 21.096 76.9218 21.272C77.1618 21.448 77.5538 21.536 78.0978 21.536Z" fill="#346E16"/>
<path d="M84.9415 17.792C85.2455 18.752 85.3975 19.792 85.3975 20.912C85.3975 21.76 85.3095 22.576 85.1335 23.36C84.9575 24.144 84.7095 24.792 84.3895 25.304C83.7175 25.496 82.8295 25.664 81.7255 25.808C80.6215 25.936 79.4135 26 78.1015 26C77.8615 26 77.6935 25.824 77.5975 25.472C77.5015 25.104 77.4535 24.536 77.4535 23.768C77.4535 23.016 77.5015 22.456 77.5975 22.088C77.6775 21.72 77.8455 21.536 78.1015 21.536C79.8135 21.536 81.0775 21.44 81.8935 21.248C81.7655 20.704 81.6055 20.168 81.4135 19.64C81.2375 19.112 81.1335 18.792 81.1015 18.68L84.9415 17.792ZM84.8695 29.192C84.9015 29.432 84.7255 29.824 84.3415 30.368C83.9575 30.912 83.6295 31.28 83.3575 31.472C83.0535 31.344 82.6695 31.12 82.2055 30.8C81.7415 30.496 81.3975 30.216 81.1735 29.96C81.0135 30.248 80.8055 30.544 80.5495 30.848C80.2935 31.152 80.0855 31.36 79.9255 31.472C79.6055 31.328 79.1975 31.08 78.7015 30.728C78.2055 30.392 77.8535 30.104 77.6455 29.864C77.7415 29.528 77.9815 29.08 78.3655 28.52C78.7495 27.96 79.0695 27.68 79.3255 27.68C79.5815 27.68 79.9655 27.856 80.4775 28.208C80.9895 28.576 81.3015 28.88 81.4135 29.12C81.6375 28.72 81.8695 28.376 82.1095 28.088C82.3495 27.816 82.5655 27.68 82.7575 27.68C83.0135 27.68 83.4135 27.872 83.9575 28.256C84.5175 28.656 84.8215 28.968 84.8695 29.192Z" fill="#346E16"/>
<path d="M87.0052 25.952C87.0852 24.672 87.1252 23.344 87.1252 21.968C87.1252 19.392 87.0292 16.28 86.8372 12.632L90.7252 12.416C90.9332 15.488 91.0372 18.4 91.0372 21.152C91.0372 22.896 91.0052 24.312 90.9412 25.4C90.6052 25.592 90.0692 25.752 89.3332 25.88C88.5972 25.992 87.8692 26.056 87.1492 26.072L87.0052 25.952ZM92.3572 8.21601C92.5492 8.55201 92.6452 8.91201 92.6452 9.29601C92.6452 9.85601 92.4532 10.336 92.0692 10.736C91.6852 11.136 91.1332 11.336 90.4132 11.336C90.0932 11.336 89.5652 11.272 88.8292 11.144C88.6852 11.128 88.4612 11.096 88.1572 11.048C87.8532 11 87.6052 10.976 87.4132 10.976C87.0452 10.976 86.7892 11.048 86.6452 11.192C86.5012 11.32 86.4052 11.496 86.3572 11.72H85.3012C85.0612 11.208 84.9412 10.72 84.9412 10.256C84.9412 9.64801 85.1492 9.14401 85.5652 8.74401C85.9652 8.34401 86.5172 8.14401 87.2212 8.14401C87.6052 8.14401 88.1652 8.24001 88.9012 8.43201C88.9812 8.44801 89.1892 8.49601 89.5252 8.57601C89.8612 8.65601 90.1892 8.69601 90.5092 8.69601C90.8612 8.69601 91.1492 8.65601 91.3732 8.57601C91.6132 8.48001 91.7732 8.36001 91.8532 8.21601H92.3572Z" fill="#346E16"/>
</g>
<defs>
<clipPath id="clip0_78_310">
<rect width="108" height="40" fill="white"/>
</clipPath>
</defs>
</svg>
