<svg width="32" height="32" viewBox="0 0 32 32" fill="none" xmlns="http://www.w3.org/2000/svg">
<path fill-rule="evenodd" clip-rule="evenodd" d="M26.1689 3.53557C25.8413 3.42741 25.4878 3.60539 25.3796 3.93327C25.2715 4.26091 25.4495 4.61442 25.7771 4.72258C28.7515 5.70427 30.75 8.46989 30.75 11.6042C30.75 14.5588 28.9834 17.1918 26.2493 18.3119C26.249 18.3122 26.2485 18.3124 26.248 18.3127C26.2476 18.3129 26.2471 18.3129 26.2466 18.3132C25.3774 18.6742 24.4805 18.8498 23.5044 18.8498C23.1594 18.8498 22.8794 19.1296 22.8794 19.4748C22.8794 19.82 23.1594 20.0998 23.5044 20.0998C24.1521 20.0998 24.7712 20.0334 25.3723 19.8984C24.8408 20.946 23.8491 22.5446 22.1689 24.1222C19.5454 26.5854 14.6777 29.4601 6.35498 29.2267C5.98926 28.9508 4.92285 28.0671 3.8689 26.4352C2.67407 24.5856 1.25 21.3654 1.25 16.529C1.25 11.6711 1.64502 8.40446 2.49341 6.24821C3.28296 4.24162 4.479 3.13566 6.37158 2.66252C9.31055 1.9279 10.5034 2.30803 10.9863 2.75627C11.4404 3.17766 11.5747 3.94792 11.386 5.04631C11.1274 6.54802 10.6968 7.45964 10.0305 7.91496C9.35498 8.37663 8.31396 8.45573 6.84814 8.15666C6.27563 8.03215 5.56641 7.83977 4.99609 7.65397C4.66797 7.5468 4.31519 7.72648 4.20825 8.05461C4.10132 8.38273 4.28076 8.73552 4.60889 8.84245C5.06372 8.99064 5.60132 9.14274 6.09937 9.26555C6.14111 10.8703 6.52368 15.7626 9.57104 17.9902C8.80054 20.3 9.06128 21.998 9.07349 22.0737C9.12305 22.3805 9.38843 22.5988 9.6897 22.5988C9.7229 22.5988 9.75635 22.5964 9.79028 22.5907C10.1311 22.5356 10.3625 22.2148 10.3074 21.8739C10.3047 21.8573 10.0508 20.2013 10.9075 17.9648C10.908 17.9635 10.9082 17.9621 10.9087 17.9609C10.9092 17.9594 10.9097 17.9584 10.9102 17.9572C11.6804 15.8661 13.0813 14.1032 15.0811 12.7052C15.2407 13.9338 15.6653 15.1125 16.3342 16.1628C16.4534 16.3498 16.6555 16.4521 16.8621 16.4521C16.9768 16.4521 17.093 16.4203 17.1973 16.3542C17.4883 16.1686 17.574 15.7824 17.3884 15.4911C16.6494 14.331 16.2588 12.987 16.2588 11.6042C16.2588 11.6037 16.2588 11.6034 16.2588 11.6032C16.2593 8.4694 18.2573 5.70427 21.2314 4.72258C21.5591 4.61442 21.7373 4.26091 21.6289 3.93303C21.5208 3.60539 21.167 3.42741 20.8396 3.53557C17.4646 4.64958 15.1614 7.72209 15.0161 11.2494C12.7104 12.6947 11.042 14.549 10.0439 16.7731C7.85718 14.913 7.43994 11.1066 7.36255 9.51164C8.81055 9.70573 9.89453 9.52189 10.7356 8.94719C11.7131 8.27897 12.2937 7.14128 12.6177 5.25798C12.8828 3.71696 12.6201 2.56706 11.8364 1.84001C10.79 0.868818 8.90332 0.741133 6.06836 1.44987C3.77515 2.02312 2.26953 3.40227 1.33008 5.79045C0.422607 8.09733 0 11.5094 0 16.529C0 21.7118 1.5564 25.1818 2.86206 27.1799C4.2981 29.3774 5.74463 30.3305 5.80566 30.3698C5.90088 30.4318 6.01123 30.4665 6.12476 30.4701C6.52271 30.4836 6.9165 30.4902 7.30664 30.4902C10.741 30.4899 13.8652 29.975 16.6074 28.9555C19.0676 28.0409 21.2266 26.7214 23.0244 25.0334C25.5913 22.6235 26.6733 20.174 26.9839 19.3569C30.0405 17.9862 32 14.9736 32 11.6042C32 7.92937 29.6567 4.68693 26.1689 3.53557Z" fill="white"/>
<path fill-rule="evenodd" clip-rule="evenodd" d="M23.5044 4.35857C23.8486 4.35857 24.1294 4.0778 24.1294 3.73357C24.1294 3.38933 23.8486 3.10857 23.5044 3.10857C23.1602 3.10857 22.8794 3.38933 22.8794 3.73357C22.8794 4.0778 23.1602 4.35857 23.5044 4.35857Z" fill="white"/>
</svg>
