<svg width="32" height="32" viewBox="0 0 32 32" fill="none" xmlns="http://www.w3.org/2000/svg">
<g clip-path="url(#clip0_3075_47)">
<path fill-rule="evenodd" clip-rule="evenodd" d="M29.1224 17.4255C28.0909 18.5051 26.6952 19.0998 25.1922 19.0998C23.785 19.0998 22.4528 18.5676 21.441 17.6011L21.3773 17.5403L21.6012 19.9563L22.1678 26.0649C22.1681 26.0654 22.1681 26.0659 22.1681 26.0664C22.444 29.0478 20.2438 31.6982 17.2626 31.9762C17.2616 31.9765 17.2609 31.9765 17.2599 31.9765C14.2775 32.2526 11.6252 30.0514 11.3486 27.0686C11.3486 27.0678 11.3483 27.0671 11.3483 27.0664L10.7819 20.9599L10.6535 19.5759L8.0744 23.9011C7.29584 25.2063 5.86225 26.017 4.33296 26.017C3.55342 26.017 2.78756 25.8061 2.11837 25.4069C0.0612502 24.1801 -0.614528 21.5083 0.612273 19.4512L5.3415 11.5208C6.12006 10.2156 7.55365 9.40481 9.08294 9.40481C9.86248 9.40481 10.6281 9.61574 11.2975 10.0147C11.5832 10.1851 11.841 10.3841 12.0722 10.6048C12.4367 10.2825 12.8405 10.012 13.2741 9.79958L12.8095 9.35549C10.6432 7.28616 10.5644 3.84038 12.6337 1.67437C13.6652 0.594543 15.0609 -0.000180244 16.5639 -0.000180244C17.9711 -0.000180244 19.3034 0.532287 20.3151 1.49859L28.9466 9.74416C29.992 10.7429 30.5863 12.094 30.6195 13.5486C30.6527 15.0032 30.1212 16.3799 29.1224 17.4255ZM2.75875 24.3335C3.23433 24.6171 3.77876 24.767 4.33296 24.767C5.42451 24.767 6.44672 24.1899 7.00092 23.2607L9.00042 19.9074C8.07489 19.6316 7.10712 19.199 6.15815 18.633C5.20918 18.0669 4.36836 17.4211 3.68575 16.738L1.686 20.0913C0.812224 21.5566 1.29342 23.4594 2.75875 24.3335ZM10.6574 11.0884C10.1816 10.8047 9.63738 10.6548 9.08294 10.6548C7.99164 10.6548 6.96918 11.2319 6.41523 12.1611L4.34956 15.625C4.98945 16.3137 5.8437 16.9902 6.79828 17.5596C7.75262 18.1286 8.75409 18.5588 9.66424 18.7944L11.7299 15.3303C12.3862 14.23 12.278 12.8826 11.5627 11.9097C11.5539 11.8989 11.5456 11.8882 11.5375 11.877C11.3041 11.5684 11.0094 11.2984 10.6574 11.0884ZM12.8427 11.5918C13.5917 12.9082 13.633 14.5796 12.8034 15.9707L11.7399 17.7541L11.9848 20.3945C12.5446 20.5112 13.1515 20.5893 13.797 20.6264C14.1415 20.6462 14.4049 20.9416 14.3852 21.2863C14.3654 21.6308 14.07 21.8923 13.7255 21.8745C13.1593 21.842 12.6174 21.7805 12.1051 21.6909L12.5932 26.9531C12.5932 26.9533 12.5932 26.9536 12.5932 26.954C12.8066 29.2499 14.8476 30.9443 17.1437 30.7319H17.1444C19.4408 30.519 21.1359 28.4775 20.9235 26.1813C20.9235 26.1809 20.9232 26.1806 20.9232 26.1804L20.4352 20.9182C19.9484 21.1006 19.4269 21.2605 18.8766 21.3965C18.5416 21.4792 18.2028 21.2749 18.12 20.9397C18.037 20.6047 18.2416 20.2658 18.5768 20.1831C19.2042 20.0281 19.7865 19.8393 20.3148 19.6218L19.9996 16.2244L14.2577 10.739C13.7345 10.9256 13.2548 11.2144 12.8427 11.5918ZM19.4518 2.4024C18.6737 1.65923 17.6481 1.24981 16.5639 1.24981C15.4057 1.24981 14.331 1.70733 13.5375 2.53765C11.9445 4.20561 12.005 6.85868 13.673 8.45169L17.5416 12.1475C18.6452 11.5291 19.8041 10.6091 20.8456 9.51882C21.8871 8.42849 22.753 7.22879 23.3202 6.09818L19.4518 2.4024ZM28.0831 10.648L24.2611 6.99686C23.6429 8.13479 22.7721 9.31179 21.7494 10.3821C20.7267 11.4526 19.5907 12.3767 18.4826 13.0461L22.3043 16.6973C23.0824 17.4404 24.108 17.8498 25.1922 17.8498C26.3504 17.8498 27.4251 17.3923 28.2186 16.562C28.9867 15.7578 29.3956 14.6978 29.37 13.5772C29.3443 12.4563 28.8873 11.416 28.0831 10.648Z" fill="white"/>
<path fill-rule="evenodd" clip-rule="evenodd" d="M16.2605 21.8265C15.9163 21.8265 15.6355 21.5457 15.6355 21.2015C15.6355 20.8572 15.9163 20.5765 16.2605 20.5765C16.6047 20.5765 16.8855 20.8572 16.8855 21.2015C16.8855 21.5457 16.6047 21.8265 16.2605 21.8265Z" fill="white"/>
</g>
<defs>
<clipPath id="clip0_3075_47">
<rect width="32" height="32" fill="white" transform="matrix(1 0 0 -1 0 32)"/>
</clipPath>
</defs>
</svg>
