<svg width="32" height="32" viewBox="0 0 32 32" fill="none" xmlns="http://www.w3.org/2000/svg">
<g clip-path="url(#clip0_3075_61)">
<path fill-rule="evenodd" clip-rule="evenodd" d="M0.625 21.8997C0.970215 21.8997 1.25 21.6199 1.25 21.2747V3.2251C1.25 2.13599 2.13599 1.25 3.2251 1.25H28.7749C29.8638 1.25 30.75 2.13599 30.75 3.2251V5.7251C30.75 6.07031 31.0298 6.3501 31.375 6.3501C31.7202 6.3501 32 6.07031 32 5.7251V3.2251C32 1.44678 30.5532 0 28.7747 0H3.2251C1.44678 0 0 1.44678 0 3.2251V21.2747C0 21.6199 0.279785 21.8997 0.625 21.8997Z" fill="white"/>
<path fill-rule="evenodd" clip-rule="evenodd" d="M31.375 10.1001C31.0298 10.1001 30.75 10.3799 30.75 10.7251V28.7747C30.75 29.8638 29.8638 30.7498 28.7747 30.7498H3.2251C2.13599 30.7498 1.25 29.8638 1.25 28.7747V26.2747C1.25 25.9297 0.970215 25.6497 0.625 25.6497C0.279785 25.6497 0 25.9297 0 26.2747V28.7747C0 30.5532 1.44678 31.9998 3.2251 31.9998H28.7749C30.5532 31.9998 32 30.5532 32 28.7747V10.7251C32 10.3799 31.7202 10.1001 31.375 10.1001Z" fill="white"/>
<path fill-rule="evenodd" clip-rule="evenodd" d="M23.6939 13.1602C23.7212 13.1602 23.7488 13.1582 23.7766 13.1545C23.9409 13.1326 24.0898 13.0464 24.1904 12.9146L27.7974 8.19238C28.0068 7.91821 27.9546 7.52612 27.6804 7.31665C26.0457 6.06592 24.2346 5.0918 22.2976 4.42114C22.2976 4.42114 22.2976 4.42114 22.2974 4.42114C22.2974 4.4209 22.2974 4.4209 22.2971 4.4209C20.2766 3.72119 18.158 3.3667 16 3.3667C13.842 3.3667 11.7234 3.72144 9.70289 4.4209C9.70264 4.4209 9.70264 4.4209 9.70264 4.4209C9.7024 4.4209 9.7024 4.42114 9.7024 4.42114C7.76539 5.0918 5.95435 6.06592 4.31934 7.31641C4.04541 7.52612 3.99317 7.91821 4.2024 8.19238L7.80957 12.9146C7.91016 13.0461 8.05909 13.1326 8.22364 13.1545C8.3877 13.1765 8.5542 13.1323 8.68604 13.0315C10.8008 11.4136 13.3301 10.5586 16 10.5586C18.6699 10.5586 21.199 11.4136 23.314 13.0315C23.4236 13.1152 23.5574 13.1602 23.6939 13.1602ZM8.43189 11.6702L5.58155 7.93848C6.80567 7.06689 8.12745 6.35596 9.52466 5.81714L10.2888 8.02417C10.3782 8.28271 10.6204 8.44482 10.8794 8.44482C10.9473 8.44482 11.0161 8.43384 11.084 8.4104C11.4102 8.29736 11.583 7.94141 11.47 7.61523L10.7061 5.40869C12.2173 4.94409 13.7827 4.68237 15.375 4.62793V6.9624C15.375 7.30762 15.6548 7.5874 16 7.5874C16.3452 7.5874 16.625 7.30762 16.625 6.9624V4.62817C18.2173 4.68237 19.7827 4.94409 21.2939 5.40894L20.53 7.61523C20.417 7.94141 20.5898 8.29736 20.916 8.4104C20.9836 8.43384 21.0527 8.44507 21.1206 8.44507C21.3794 8.44507 21.6216 8.28271 21.7112 8.02441L22.4753 5.81714C23.8723 6.35596 25.1941 7.06714 26.4185 7.93848L23.5679 11.6702C21.3403 10.123 18.7371 9.30859 16 9.30859C13.2629 9.30859 10.6597 10.1228 8.43189 11.6702Z" fill="white"/>
<path fill-rule="evenodd" clip-rule="evenodd" d="M16 14.8225C15.7217 14.8225 15.477 15.0063 15.3996 15.2737L11.8425 27.5588C11.7878 27.7476 11.8252 27.9509 11.9431 28.1082C12.0613 28.2651 12.2463 28.3577 12.4426 28.3577H19.5571H19.5583C19.9036 28.3577 20.1833 28.0779 20.1833 27.7327C20.1833 27.6577 20.1702 27.5859 20.146 27.5193L16.6003 15.2737C16.5229 15.0063 16.2783 14.8225 16 14.8225ZM13.2744 27.1077L16 17.6946L18.7256 27.1077H13.2744Z" fill="white"/>
<path fill-rule="evenodd" clip-rule="evenodd" d="M0.625 24.3999C0.969238 24.3999 1.25 24.1189 1.25 23.7747C1.25 23.4304 0.969238 23.1497 0.625 23.1497C0.280762 23.1497 0 23.4304 0 23.7747C0 24.1189 0.280762 24.3999 0.625 24.3999Z" fill="white"/>
<path fill-rule="evenodd" clip-rule="evenodd" d="M31.375 7.6001C31.0308 7.6001 30.75 7.88086 30.75 8.2251C30.75 8.56934 31.0308 8.8501 31.375 8.8501C31.7192 8.8501 32 8.56934 32 8.2251C32 7.88086 31.7192 7.6001 31.375 7.6001Z" fill="white"/>
</g>
<defs>
<clipPath id="clip0_3075_61">
<rect width="32" height="32" fill="white"/>
</clipPath>
</defs>
</svg>
