<svg width="145" height="15" viewBox="0 0 145 15" fill="none" xmlns="http://www.w3.org/2000/svg">
<path d="M6.63367 2.99487L2.81042 14.0867H0.498901L5.31531 1.28979H6.79187L6.63367 2.99487ZM9.83289 14.0867L6.00085 2.99487L5.83386 1.28979H7.31921L12.1532 14.0867H9.83289ZM9.64832 9.34058V11.0896H2.68738V9.34058H9.64832ZM20.7098 11.5115C20.7098 11.3005 20.6571 11.1101 20.5516 10.9402C20.4462 10.7644 20.244 10.6062 19.9452 10.4656C19.6522 10.325 19.2186 10.196 18.6444 10.0789C18.1405 9.96753 17.6776 9.83569 17.2557 9.68335C16.8397 9.52515 16.4823 9.33472 16.1835 9.11206C15.8846 8.8894 15.6532 8.62573 15.4891 8.32104C15.3251 8.01636 15.243 7.66479 15.243 7.26636C15.243 6.87964 15.328 6.51343 15.4979 6.16772C15.6678 5.82202 15.911 5.51733 16.2274 5.25366C16.5438 4.98999 16.9276 4.78198 17.3788 4.62964C17.8358 4.47729 18.3456 4.40112 18.9081 4.40112C19.705 4.40112 20.3876 4.53589 20.9559 4.80542C21.5302 5.06909 21.9696 5.42944 22.2743 5.88647C22.579 6.33765 22.7313 6.84741 22.7313 7.41577H20.6132C20.6132 7.16382 20.5487 6.92944 20.4198 6.71265C20.2968 6.48999 20.1093 6.31128 19.8573 6.17651C19.6053 6.03589 19.2889 5.96558 18.9081 5.96558C18.5448 5.96558 18.243 6.02417 18.0028 6.14136C17.7684 6.25269 17.5927 6.39917 17.4755 6.58081C17.3641 6.76245 17.3085 6.96167 17.3085 7.17847C17.3085 7.33667 17.3378 7.48022 17.3964 7.60913C17.4608 7.73218 17.5663 7.84644 17.7128 7.9519C17.8593 8.05151 18.0585 8.14526 18.3104 8.23315C18.5682 8.32104 18.8905 8.40601 19.2772 8.48804C20.0038 8.64038 20.6278 8.83667 21.1493 9.0769C21.6766 9.31128 22.0809 9.61597 22.3622 9.99097C22.6434 10.3601 22.7841 10.8289 22.7841 11.3972C22.7841 11.8191 22.6932 12.2058 22.5116 12.5574C22.3358 12.9031 22.078 13.2048 21.7382 13.4626C21.3983 13.7146 20.9911 13.9109 20.5165 14.0515C20.0477 14.1921 19.5204 14.2625 18.9344 14.2625C18.0731 14.2625 17.3436 14.1101 16.746 13.8054C16.1483 13.4949 15.6942 13.0994 15.3837 12.6189C15.079 12.1326 14.9266 11.6287 14.9266 11.1072H16.9745C16.9979 11.4998 17.1063 11.8132 17.2997 12.0476C17.4989 12.2761 17.745 12.4431 18.038 12.5486C18.3368 12.6482 18.6444 12.698 18.9608 12.698C19.3417 12.698 19.661 12.6482 19.9188 12.5486C20.1766 12.4431 20.3729 12.3025 20.5077 12.1267C20.6425 11.9451 20.7098 11.74 20.7098 11.5115ZM35.9862 14.0867H33.868V3.66284C33.868 2.95386 33.9999 2.35913 34.2635 1.87866C34.5331 1.39233 34.9169 1.02612 35.4149 0.780029C35.913 0.528076 36.5018 0.4021 37.1815 0.4021C37.3925 0.4021 37.6005 0.416748 37.8055 0.446045C38.0106 0.469482 38.2098 0.507568 38.4032 0.560303L38.3505 2.19507C38.2333 2.16577 38.1044 2.14526 37.9637 2.13354C37.829 2.12183 37.6825 2.11597 37.5243 2.11597C37.202 2.11597 36.9237 2.17749 36.6893 2.30054C36.4608 2.41772 36.285 2.59058 36.162 2.81909C36.0448 3.04761 35.9862 3.32886 35.9862 3.66284V14.0867ZM37.9462 4.5769V6.12378H32.4091V4.5769H37.9462ZM45.4657 14.2625C44.7626 14.2625 44.1268 14.1482 43.5585 13.9197C42.996 13.6853 42.5155 13.3601 42.1171 12.9441C41.7245 12.5281 41.4227 12.0388 41.2118 11.4763C41.0009 10.9138 40.8954 10.3074 40.8954 9.65698V9.30542C40.8954 8.56128 41.0038 7.88745 41.2206 7.28394C41.4374 6.68042 41.7391 6.16479 42.1259 5.73706C42.5126 5.30347 42.9696 4.97241 43.4969 4.7439C44.0243 4.51538 44.5956 4.40112 45.2108 4.40112C45.8905 4.40112 46.4852 4.51538 46.995 4.7439C47.5048 4.97241 47.9266 5.29468 48.2606 5.71069C48.6005 6.12085 48.8524 6.61011 49.0165 7.17847C49.1864 7.74683 49.2714 8.37378 49.2714 9.05933V9.9646H41.9237V8.44409H47.1796V8.2771C47.1678 7.89624 47.0917 7.53882 46.951 7.20483C46.8163 6.87085 46.6083 6.60132 46.327 6.39624C46.0458 6.19116 45.6708 6.08862 45.202 6.08862C44.8505 6.08862 44.537 6.16479 44.2616 6.31714C43.9921 6.46362 43.7665 6.67749 43.5848 6.95874C43.4032 7.23999 43.2626 7.57983 43.163 7.97827C43.0692 8.37085 43.0223 8.81323 43.0223 9.30542V9.65698C43.0223 10.073 43.078 10.4597 43.1893 10.8171C43.3065 11.1687 43.4764 11.4763 43.6991 11.74C43.9218 12.0037 44.1913 12.2117 44.5077 12.364C44.8241 12.5105 45.1844 12.5837 45.5887 12.5837C46.0985 12.5837 46.5526 12.4812 46.951 12.2761C47.3495 12.071 47.6952 11.781 47.9882 11.406L49.1044 12.4871C48.8993 12.7859 48.6327 13.073 48.3046 13.3484C47.9764 13.6179 47.5751 13.8376 47.1005 14.0076C46.6317 14.1775 46.0868 14.2625 45.4657 14.2625ZM58.285 12.1794V7.64429C58.285 7.30444 58.2235 7.01147 58.1005 6.76538C57.9774 6.51929 57.7899 6.32886 57.538 6.19409C57.2919 6.05933 56.9813 5.99194 56.6063 5.99194C56.2606 5.99194 55.9618 6.05054 55.7098 6.16772C55.4579 6.28491 55.2616 6.44312 55.121 6.64233C54.9803 6.84155 54.91 7.06714 54.91 7.31909H52.8007C52.8007 6.94409 52.8915 6.58081 53.0731 6.22925C53.2548 5.87769 53.5184 5.56421 53.8641 5.28882C54.2098 5.01343 54.6229 4.79663 55.1034 4.63843C55.5839 4.48022 56.1229 4.40112 56.7206 4.40112C57.4354 4.40112 58.0682 4.52124 58.619 4.76147C59.1757 5.00171 59.6122 5.36499 59.9286 5.85132C60.2509 6.33179 60.412 6.9353 60.412 7.66187V11.8894C60.412 12.323 60.4413 12.7126 60.4999 13.0583C60.5643 13.3982 60.6552 13.6941 60.7723 13.946V14.0867H58.6014C58.5018 13.8582 58.4227 13.5681 58.3641 13.2166C58.3114 12.8591 58.285 12.5134 58.285 12.1794ZM58.5927 8.30347L58.6102 9.61304H57.0897C56.6971 9.61304 56.3514 9.65112 56.0526 9.72729C55.7538 9.79761 55.5048 9.90308 55.3055 10.0437C55.1063 10.1843 54.9569 10.3542 54.8573 10.5535C54.7577 10.7527 54.7079 10.9783 54.7079 11.2302C54.7079 11.4822 54.7665 11.7136 54.8837 11.9246C55.0009 12.1296 55.1708 12.2908 55.3934 12.408C55.6219 12.5251 55.8973 12.5837 56.2196 12.5837C56.6532 12.5837 57.0311 12.4958 57.3534 12.3201C57.6815 12.1384 57.9393 11.9187 58.1268 11.6609C58.3143 11.3972 58.4139 11.1482 58.4257 10.9138L59.1112 11.8542C59.0409 12.0945 58.9208 12.3523 58.7509 12.6277C58.5809 12.9031 58.3583 13.1667 58.0829 13.4187C57.8134 13.6648 57.4882 13.8669 57.1073 14.0251C56.7323 14.1833 56.2987 14.2625 55.8065 14.2625C55.1854 14.2625 54.6317 14.1394 54.1454 13.8933C53.6591 13.6414 53.2782 13.3044 53.0028 12.8826C52.7274 12.4548 52.5897 11.9714 52.5897 11.4324C52.5897 10.9285 52.6835 10.4832 52.871 10.0964C53.0643 9.70386 53.3456 9.37573 53.7147 9.11206C54.0897 8.84839 54.5468 8.64917 55.0858 8.5144C55.6249 8.37378 56.2401 8.30347 56.9315 8.30347H58.5927ZM68.9862 4.5769V6.12378H63.6249V4.5769H68.9862ZM65.1718 2.2478H67.2899V11.4587C67.2899 11.7517 67.3309 11.9773 67.413 12.1355C67.5009 12.2878 67.621 12.3904 67.7733 12.4431C67.9257 12.4958 68.1044 12.5222 68.3094 12.5222C68.4559 12.5222 68.5966 12.5134 68.7313 12.4958C68.8661 12.4783 68.9745 12.4607 69.0565 12.4431L69.0653 14.0603C68.8895 14.113 68.6844 14.1599 68.4501 14.2009C68.2216 14.2419 67.9579 14.2625 67.6591 14.2625C67.1727 14.2625 66.7421 14.1775 66.3671 14.0076C65.9921 13.8318 65.6991 13.5476 65.4882 13.155C65.2772 12.7625 65.1718 12.241 65.1718 11.5906V2.2478ZM78.3427 11.8455V4.5769H80.4696V14.0867H78.4657L78.3427 11.8455ZM78.6415 9.86792L79.3534 9.85034C79.3534 10.489 79.2831 11.0779 79.1425 11.6169C79.0018 12.1501 78.785 12.616 78.4921 13.0144C78.1991 13.407 77.8241 13.7146 77.3671 13.9373C76.91 14.1541 76.3622 14.2625 75.7235 14.2625C75.2606 14.2625 74.8358 14.1951 74.4491 14.0603C74.0624 13.9255 73.7284 13.7175 73.4471 13.4363C73.1718 13.155 72.9579 12.7888 72.8055 12.3376C72.6532 11.8865 72.577 11.3474 72.577 10.7205V4.5769H74.6952V10.738C74.6952 11.0837 74.7362 11.3738 74.8182 11.6082C74.9003 11.8367 75.0116 12.0212 75.1522 12.1619C75.2928 12.3025 75.4569 12.4021 75.6444 12.4607C75.8319 12.5193 76.0311 12.5486 76.2421 12.5486C76.8456 12.5486 77.3202 12.4314 77.6659 12.197C78.0175 11.9568 78.2665 11.6345 78.413 11.2302C78.5653 10.8259 78.6415 10.3718 78.6415 9.86792ZM86.7675 6.38745V14.0867H84.6493V4.5769H86.6708L86.7675 6.38745ZM89.6766 4.51538L89.6591 6.48413C89.5302 6.46069 89.3895 6.44312 89.2372 6.4314C89.0907 6.41968 88.9442 6.41382 88.7977 6.41382C88.4344 6.41382 88.1151 6.46655 87.8397 6.57202C87.5643 6.67163 87.3329 6.81812 87.1454 7.01147C86.9637 7.19897 86.8231 7.42749 86.7235 7.69702C86.6239 7.96655 86.5653 8.26831 86.5477 8.60229L86.0643 8.63745C86.0643 8.03979 86.1229 7.48608 86.2401 6.97632C86.3573 6.46655 86.5331 6.01831 86.7675 5.63159C87.0077 5.24487 87.3065 4.94312 87.6639 4.72632C88.0272 4.50952 88.4462 4.40112 88.9208 4.40112C89.0497 4.40112 89.1874 4.41284 89.3339 4.43628C89.4862 4.45972 89.6005 4.48608 89.6766 4.51538ZM97.0204 14.2625C96.3173 14.2625 95.6815 14.1482 95.1132 13.9197C94.5507 13.6853 94.0702 13.3601 93.6718 12.9441C93.2792 12.5281 92.9774 12.0388 92.7665 11.4763C92.5555 10.9138 92.4501 10.3074 92.4501 9.65698V9.30542C92.4501 8.56128 92.5585 7.88745 92.7753 7.28394C92.9921 6.68042 93.2938 6.16479 93.6805 5.73706C94.0673 5.30347 94.5243 4.97241 95.0516 4.7439C95.579 4.51538 96.1503 4.40112 96.7655 4.40112C97.4452 4.40112 98.0399 4.51538 98.5497 4.7439C99.0594 4.97241 99.4813 5.29468 99.8153 5.71069C100.155 6.12085 100.407 6.61011 100.571 7.17847C100.741 7.74683 100.826 8.37378 100.826 9.05933V9.9646H93.4784V8.44409H98.7343V8.2771C98.7225 7.89624 98.6464 7.53882 98.5057 7.20483C98.371 6.87085 98.163 6.60132 97.8817 6.39624C97.6005 6.19116 97.2255 6.08862 96.7567 6.08862C96.4052 6.08862 96.0917 6.16479 95.8163 6.31714C95.5468 6.46362 95.3212 6.67749 95.1395 6.95874C94.9579 7.23999 94.8173 7.57983 94.7177 7.97827C94.6239 8.37085 94.577 8.81323 94.577 9.30542V9.65698C94.577 10.073 94.6327 10.4597 94.744 10.8171C94.8612 11.1687 95.0311 11.4763 95.2538 11.74C95.4764 12.0037 95.746 12.2117 96.0624 12.364C96.3788 12.5105 96.7391 12.5837 97.1434 12.5837C97.6532 12.5837 98.1073 12.4812 98.5057 12.2761C98.9042 12.071 99.2499 11.781 99.5428 11.406L100.659 12.4871C100.454 12.7859 100.187 13.073 99.8593 13.3484C99.5311 13.6179 99.1298 13.8376 98.6552 14.0076C98.1864 14.1775 97.6415 14.2625 97.0204 14.2625ZM110.279 12.1179V0.58667H112.406V14.0867H110.481L110.279 12.1179ZM104.092 9.43726V9.25269C104.092 8.53198 104.177 7.87573 104.347 7.28394C104.516 6.68628 104.763 6.17358 105.085 5.74585C105.407 5.31226 105.8 4.9812 106.263 4.75269C106.725 4.51831 107.247 4.40112 107.827 4.40112C108.401 4.40112 108.905 4.51245 109.339 4.73511C109.772 4.95776 110.141 5.2771 110.446 5.69312C110.751 6.10327 110.994 6.59546 111.176 7.16968C111.357 7.73804 111.486 8.37085 111.562 9.06812V9.65698C111.486 10.3367 111.357 10.9578 111.176 11.5203C110.994 12.0828 110.751 12.5691 110.446 12.9792C110.141 13.3894 109.769 13.7058 109.33 13.9285C108.896 14.1511 108.39 14.2625 107.809 14.2625C107.235 14.2625 106.717 14.1423 106.254 13.9021C105.797 13.6619 105.407 13.325 105.085 12.8914C104.763 12.4578 104.516 11.948 104.347 11.3621C104.177 10.7703 104.092 10.1287 104.092 9.43726ZM106.21 9.25269V9.43726C106.21 9.87085 106.248 10.2751 106.324 10.6501C106.406 11.0251 106.532 11.3562 106.702 11.6433C106.872 11.9246 107.092 12.1472 107.361 12.3113C107.637 12.4695 107.965 12.5486 108.346 12.5486C108.826 12.5486 109.222 12.4431 109.532 12.2322C109.843 12.0212 110.086 11.7371 110.262 11.3796C110.443 11.0164 110.566 10.6121 110.631 10.1667V8.57593C110.596 8.23022 110.522 7.90796 110.411 7.60913C110.306 7.3103 110.162 7.04956 109.98 6.8269C109.799 6.59839 109.573 6.42261 109.304 6.29956C109.04 6.17065 108.726 6.1062 108.363 6.1062C107.976 6.1062 107.648 6.18823 107.379 6.35229C107.109 6.51636 106.887 6.74194 106.711 7.02905C106.541 7.31616 106.415 7.65015 106.333 8.03101C106.251 8.41187 106.21 8.81909 106.21 9.25269ZM125.371 4.5769V14.0867H123.244V4.5769H125.371ZM123.103 2.08081C123.103 1.75854 123.209 1.49194 123.42 1.28101C123.637 1.06421 123.935 0.955811 124.316 0.955811C124.691 0.955811 124.987 1.06421 125.204 1.28101C125.421 1.49194 125.529 1.75854 125.529 2.08081C125.529 2.39722 125.421 2.66089 125.204 2.87183C124.987 3.08276 124.691 3.18823 124.316 3.18823C123.935 3.18823 123.637 3.08276 123.42 2.87183C123.209 2.66089 123.103 2.39722 123.103 2.08081ZM131.792 6.60718V14.0867H129.674V4.5769H131.669L131.792 6.60718ZM131.414 8.98022L130.728 8.97144C130.734 8.29761 130.828 7.67944 131.01 7.11694C131.197 6.55444 131.455 6.07104 131.783 5.66675C132.117 5.26245 132.516 4.9519 132.978 4.73511C133.441 4.51245 133.957 4.40112 134.525 4.40112C134.982 4.40112 135.395 4.46558 135.765 4.59448C136.14 4.71753 136.459 4.91968 136.723 5.20093C136.992 5.48218 137.197 5.84839 137.338 6.29956C137.478 6.74487 137.549 7.29272 137.549 7.94312V14.0867H135.422V7.93433C135.422 7.47729 135.354 7.11694 135.22 6.85327C135.091 6.58374 134.9 6.39331 134.648 6.28198C134.402 6.16479 134.095 6.1062 133.725 6.1062C133.362 6.1062 133.037 6.18237 132.75 6.33472C132.463 6.48706 132.22 6.69507 132.02 6.95874C131.827 7.22241 131.678 7.5271 131.572 7.8728C131.467 8.21851 131.414 8.58765 131.414 8.98022ZM141.737 13.032C141.737 12.7039 141.849 12.4285 142.071 12.2058C142.294 11.9773 142.596 11.863 142.976 11.863C143.363 11.863 143.665 11.9773 143.882 12.2058C144.104 12.4285 144.216 12.7039 144.216 13.032C144.216 13.3601 144.104 13.6355 143.882 13.8582C143.665 14.0808 143.363 14.1921 142.976 14.1921C142.596 14.1921 142.294 14.0808 142.071 13.8582C141.849 13.6355 141.737 13.3601 141.737 13.032ZM141.746 5.5437C141.746 5.21558 141.857 4.94019 142.08 4.71753C142.303 4.48901 142.604 4.37476 142.985 4.37476C143.372 4.37476 143.674 4.48901 143.891 4.71753C144.113 4.94019 144.224 5.21558 144.224 5.5437C144.224 5.87183 144.113 6.14722 143.891 6.36987C143.674 6.59253 143.372 6.70386 142.985 6.70386C142.604 6.70386 142.303 6.59253 142.08 6.36987C141.857 6.14722 141.746 5.87183 141.746 5.5437Z" fill="black" fill-opacity="0.4"/>
</svg>
