<svg width="17" height="17" viewBox="0 0 17 17" fill="none" xmlns="http://www.w3.org/2000/svg">
<g clip-path="url(#clip0_5696_134)">
<path d="M15.892 3.61082C15.7045 3.38578 15.4697 3.20479 15.2044 3.0807C14.939 2.95661 14.6496 2.89246 14.3567 2.89282H3.578L3.55 2.65882C3.4927 2.17243 3.25892 1.72398 2.89299 1.39847C2.52706 1.07297 2.05442 0.89305 1.56467 0.892822L1.41667 0.892822C1.23986 0.892822 1.07029 0.96306 0.945262 1.08808C0.820238 1.21311 0.75 1.38268 0.75 1.55949C0.75 1.7363 0.820238 1.90587 0.945262 2.03089C1.07029 2.15592 1.23986 2.22616 1.41667 2.22616H1.56467C1.72796 2.22618 1.88556 2.28613 2.00758 2.39463C2.1296 2.50314 2.20756 2.65265 2.22667 2.81482L3.144 10.6148C3.23923 11.426 3.62899 12.174 4.23927 12.7168C4.84956 13.2596 5.6379 13.5595 6.45467 13.5595H13.4167C13.5935 13.5595 13.763 13.4893 13.8881 13.3642C14.0131 13.2392 14.0833 13.0696 14.0833 12.8928C14.0833 12.716 14.0131 12.5464 13.8881 12.4214C13.763 12.2964 13.5935 12.2262 13.4167 12.2262H6.45467C6.04204 12.225 5.63987 12.0962 5.30329 11.8575C4.96671 11.6188 4.71221 11.2819 4.57467 10.8928H12.5213C13.3029 10.8929 14.0596 10.6183 14.6592 10.1171C15.2589 9.61592 15.6634 8.91995 15.802 8.15082L16.3253 5.24816C16.3776 4.96016 16.3658 4.6642 16.2909 4.38125C16.2161 4.09829 16.0799 3.83527 15.892 3.61082ZM15.0167 5.01149L14.4927 7.91416C14.4094 8.37616 14.1663 8.79415 13.8059 9.09495C13.4455 9.39576 12.9908 9.5602 12.5213 9.55949H4.36267L3.73533 4.22616H14.3567C14.4546 4.22557 14.5515 4.24657 14.6404 4.28766C14.7293 4.32875 14.808 4.38892 14.871 4.46389C14.934 4.53887 14.9797 4.6268 15.0049 4.72145C15.0301 4.81609 15.0341 4.91512 15.0167 5.01149Z" fill="#181818"/>
<path d="M5.41683 16.8932C6.15321 16.8932 6.75016 16.2963 6.75016 15.5599C6.75016 14.8235 6.15321 14.2266 5.41683 14.2266C4.68045 14.2266 4.0835 14.8235 4.0835 15.5599C4.0835 16.2963 4.68045 16.8932 5.41683 16.8932Z" fill="#181818"/>
<path d="M12.0833 16.8932C12.8197 16.8932 13.4167 16.2963 13.4167 15.5599C13.4167 14.8235 12.8197 14.2266 12.0833 14.2266C11.347 14.2266 10.75 14.8235 10.75 15.5599C10.75 16.2963 11.347 16.8932 12.0833 16.8932Z" fill="#181818"/>
</g>
<defs>
<clipPath id="clip0_5696_134">
<rect width="16" height="16" fill="white" transform="translate(0.75 0.892822)"/>
</clipPath>
</defs>
</svg>
